<svg width="31" height="31" viewBox="0 0 31 31" fill="none" xmlns="http://www.w3.org/2000/svg">
<path d="M15.5 1.72217C12.775 1.72217 10.1112 2.53022 7.84549 4.04414C5.57975 5.55806 3.81381 7.70986 2.77101 10.2274C1.7282 12.745 1.45535 15.5152 1.98697 18.1879C2.51859 20.8605 3.8308 23.3154 5.75765 25.2423C7.68451 27.1692 10.1395 28.4814 12.8121 29.013C15.4847 29.5446 18.255 29.2718 20.7725 28.229C23.2901 27.1861 25.4419 25.4202 26.9558 23.1545C28.4697 20.8887 29.2778 18.2249 29.2778 15.4999C29.2778 11.8458 27.8262 8.34142 25.2424 5.75759C22.6585 3.17375 19.1541 1.72217 15.5 1.72217ZM5.5714 16.3611H3.48751C3.48751 16.0769 3.44446 15.7927 3.44446 15.4999C3.44446 15.2072 3.44446 14.923 3.48751 14.6388H5.5714V16.3611ZM14.6389 3.48745C14.9231 3.48745 15.2072 3.44439 15.5 3.44439C15.7928 3.44439 16.077 3.44439 16.3611 3.48745V5.57133H14.6389V3.48745ZM16.3611 27.5124C16.077 27.5124 15.7928 27.5555 15.5 27.5555C15.2072 27.5555 14.9231 27.5555 14.6389 27.5124V25.4286H16.3611V27.5124ZM23.25 22.7074C23.1792 22.7916 23.083 22.8506 22.9759 22.8754C22.8688 22.9003 22.7565 22.8897 22.6558 22.8452L13.5625 17.5494L8.26668 8.45606C8.0514 8.05133 8.60251 7.50883 9.00724 7.73272L17.937 13.1836L23.3878 22.1133C23.4322 22.2139 23.4428 22.3262 23.418 22.4333C23.3931 22.5405 23.3342 22.6367 23.25 22.7074ZM25.4286 16.3611V14.6388H27.5125C27.5125 14.923 27.5556 15.2072 27.5556 15.4999C27.5556 15.7927 27.5556 16.0769 27.5125 16.3611H25.4286Z" fill="#1F4060"/>
<path d="M14.4409 16.6624L20.9681 20.4686L17.05 14.0619L14.4409 16.6624Z" fill="#1F4060"/>
</svg>
