<svg width="28" height="31" viewBox="0 0 28 31" fill="none" xmlns="http://www.w3.org/2000/svg">
<path d="M19.1565 3.40417C19.2985 3.859 19.375 4.34241 19.375 4.84374V5.88127C20.2081 6.09778 20.8281 6.85002 20.8281 7.74999C20.8281 8.81852 19.9592 9.68749 18.8906 9.68749C17.8221 9.68749 16.9531 8.81852 16.9531 7.74999C16.9531 6.85002 17.5731 6.09778 18.4062 5.88127V4.84374C18.4062 4.34435 18.3079 3.86772 18.135 3.42888C13.9476 3.81202 10.6562 7.33924 10.6562 11.625C10.6562 14.6911 12.3186 17.4443 15.0156 18.8824V27.125C15.0156 27.513 15.1668 27.8777 15.4414 28.1523L17.8633 30.5742C18.1374 30.8489 18.5022 31 18.8906 31C19.2791 31 19.6438 30.8484 19.918 30.5742L22.3399 28.1523C22.6145 27.8777 22.7656 27.513 22.7656 27.125V26.1562H20.8281C20.5608 26.1562 20.3438 25.9392 20.3438 25.6719C20.3438 25.4045 20.5608 25.1875 20.8281 25.1875H22.7656V23.25H20.8281C20.5608 23.25 20.3438 23.033 20.3438 22.7656C20.3438 22.4982 20.5608 22.2812 20.8281 22.2812H22.7656V20.3437H20.8281C20.5608 20.3437 20.3438 20.1267 20.3438 19.8594C20.3438 19.592 20.5608 19.375 20.8281 19.375H22.7656V18.8824C25.4626 17.4443 27.125 14.6911 27.125 11.625C27.125 7.17455 23.5736 3.5461 19.1565 3.40417Z" fill="#1F4060"/>
<path d="M19.1565 3.40419C18.5419 1.43375 16.7008 0 14.5313 0C11.8604 0 9.6875 2.17291 9.6875 4.84375C9.6875 5.37463 9.77663 5.89339 9.94616 6.39278C9.35425 6.74056 8.80158 7.16245 8.30316 7.66136C6.13509 9.82942 5.36348 12.9517 6.25425 15.8754L0.425766 21.7039C0.151125 21.978 0 22.3428 0 22.7312V26.1562C0 26.5442 0.151125 26.909 0.425766 27.1836C0.700406 27.4583 1.06514 27.6094 1.45313 27.6094H4.87814C5.26613 27.6094 5.63134 27.4583 5.9055 27.1836L6.59041 26.4987L5.34508 25.2534C5.15569 25.064 5.15569 24.7574 5.34508 24.5685C5.53447 24.3791 5.84059 24.3791 6.02998 24.5685L7.27531 25.8138L8.64561 24.4435L7.40028 23.1982C7.21089 23.0088 7.21089 22.7022 7.40028 22.5133C7.58967 22.3239 7.8958 22.3239 8.08519 22.5133L9.33052 23.7586L10.7008 22.3883L9.45549 21.143C9.26609 20.9536 9.26609 20.647 9.45549 20.4581C9.64488 20.2687 9.951 20.2687 10.1404 20.4581L11.3857 21.7034L11.7345 21.3546C12.4843 21.5823 13.2607 21.6985 14.0469 21.7073V19.4418C11.3431 17.7717 9.6875 14.8287 9.6875 11.625C9.6875 9.28644 10.5715 7.15567 12.013 5.53059C11.6047 5.63861 11.2075 5.78053 10.8219 5.94861C10.7144 5.59017 10.6563 5.22059 10.6563 4.84375C10.6563 2.70717 12.3947 0.96875 14.5313 0.96875C16.1684 0.96875 17.5683 1.99078 18.135 3.42889C18.3845 3.40613 18.6358 3.39062 18.8906 3.39062C18.9807 3.39062 19.0674 3.40128 19.1565 3.40419Z" fill="#1F4060"/>
<path d="M18.8906 8.71875C19.4257 8.71875 19.8594 8.28503 19.8594 7.75C19.8594 7.21497 19.4257 6.78125 18.8906 6.78125C18.3556 6.78125 17.9219 7.21497 17.9219 7.75C17.9219 8.28503 18.3556 8.71875 18.8906 8.71875Z" fill="#1F4060"/>
</svg>
