<svg width="33" height="33" viewBox="0 0 33 33" fill="none" xmlns="http://www.w3.org/2000/svg">
<path d="M26.125 9.625H15.125V19.25H4.125V6.875H1.375V27.5H4.125V23.375H28.875V27.5H31.625V15.125C31.625 13.6663 31.0455 12.2674 30.0141 11.2359C28.9826 10.2045 27.5837 9.625 26.125 9.625ZM9.625 17.875C10.719 17.875 11.7682 17.4404 12.5418 16.6668C13.3154 15.8932 13.75 14.844 13.75 13.75C13.75 12.656 13.3154 11.6068 12.5418 10.8332C11.7682 10.0596 10.719 9.625 9.625 9.625C8.53098 9.625 7.48177 10.0596 6.70818 10.8332C5.9346 11.6068 5.5 12.656 5.5 13.75C5.5 14.844 5.9346 15.8932 6.70818 16.6668C7.48177 17.4404 8.53098 17.875 9.625 17.875Z" fill="#1F4060"/>
</svg>
