<svg width="50" height="48" viewBox="0 0 50 48" fill="none" xmlns="http://www.w3.org/2000/svg">
<g clip-path="url(#clip0_157:624)">
<path d="M33 6.52295H17.005V8.29137H33V6.52295Z" fill="#1F4060"/>
<path d="M17.005 22.7722C17.04 22.7722 17.075 22.7571 17.11 22.7571H32.895C32.93 22.7571 32.965 22.7722 33 22.7722V9.61011H17.005V22.7722Z" fill="#1F4060"/>
<path d="M14.09 26.5263H35.915C35.605 25.1216 34.37 24.0707 32.895 24.0707H17.105C15.63 24.0707 14.4 25.1216 14.09 26.5263Z" fill="#1F4060"/>
<path d="M29.58 37.253C33.26 35.5503 35.72 31.8871 35.945 27.84H14.055C14.28 31.8871 16.745 35.5553 20.42 37.253C20.645 37.3591 20.785 37.5511 20.8 37.7987C20.815 38.0261 20.73 38.2534 20.54 38.3949C18.72 39.7086 17.555 41.7802 17.365 44.0033H32.63C32.44 41.7751 31.275 39.7086 29.455 38.3949C29.265 38.2534 29.175 38.0261 29.195 37.7987C29.215 37.5511 29.355 37.3591 29.58 37.253Z" fill="#1F4060"/>
</g>
<defs>
<clipPath id="clip0_157:624">
<rect width="50" height="48" fill="white"/>
</clipPath>
</defs>
</svg>
