<svg width="34" height="37" viewBox="0 0 34 37" fill="none" xmlns="http://www.w3.org/2000/svg">
<g clip-path="url(#clip0_157:636)">
<path d="M31.6916 12.1631H21.3411V5.40444H31.2545C31.7645 5.40444 32.1773 4.98512 32.1773 4.46713C32.1773 3.9491 31.7645 3.52979 31.2545 3.52979H18.5725C18.3345 3.52979 18.1062 3.61858 17.9265 3.78139L2.13107 18.0831C1.74734 18.4334 1.7182 19.0254 2.06307 19.4102C2.40307 19.795 2.98107 19.8295 3.35992 19.4842L5.62819 17.4319V24.7234H3.78249C3.51535 24.7234 3.29677 24.9405 3.29677 25.2167V31.0035H32.1774V12.6564C32.1774 12.3851 31.9636 12.1631 31.6916 12.1631ZM12.5642 18.4432H10.7136C10.4465 18.4432 10.2279 18.6652 10.2279 18.9366V24.2301C10.2279 24.5014 10.0093 24.7234 9.74221 24.7234H7.47877V15.7546L12.5642 11.1518V18.4432ZM17.1591 12.6564V17.9499C17.1591 18.2262 16.9405 18.4432 16.6733 18.4432H14.4099V9.47938L18.9125 5.40444H19.4954V12.1631H17.6448C17.3776 12.1631 17.1591 12.3851 17.1591 12.6564ZM23.579 29.0303H19.8754C19.6069 29.0303 19.3897 28.8094 19.3897 28.537C19.3897 28.2645 19.6069 28.0436 19.8754 28.0436H23.579C23.8475 28.0436 24.0647 28.2645 24.0647 28.537C24.0647 28.8094 23.8475 29.0303 23.579 29.0303ZM30.2343 28.537C30.2343 28.8094 30.0171 29.0303 29.7486 29.0303H25.9772C25.7087 29.0303 25.4915 28.8094 25.4915 28.537C25.4915 28.2645 25.7087 28.0436 25.9772 28.0436H29.2629V24.7233C29.2629 24.4508 29.4801 24.2299 29.7486 24.2299C30.0171 24.2299 30.2343 24.4508 30.2343 24.7233V28.537Z" fill="#1F4060"/>
</g>
<defs>
<clipPath id="clip0_157:636">
<rect width="34" height="37" fill="white"/>
</clipPath>
</defs>
</svg>
