<svg width="26" height="41" viewBox="0 0 26 41" fill="none" xmlns="http://www.w3.org/2000/svg">
<g clip-path="url(#clip0_157:624)">
<path d="M21 1.52295H5.005V3.29137H21V1.52295Z" fill="#1F4060"/>
<path d="M5.005 17.7722C5.04 17.7722 5.07501 17.7571 5.11001 17.7571H20.895C20.93 17.7571 20.965 17.7722 21 17.7722V4.61011H5.005V17.7722Z" fill="#1F4060"/>
<path d="M2.09003 21.5263H23.915C23.605 20.1216 22.37 19.0707 20.895 19.0707H5.10503C3.63003 19.0707 2.40003 20.1216 2.09003 21.5263Z" fill="#1F4060"/>
<path d="M17.58 32.253C21.26 30.5503 23.72 26.8871 23.945 22.84H2.05499C2.27999 26.8871 4.74499 30.5553 8.41999 32.253C8.64499 32.3591 8.78499 32.5511 8.79999 32.7987C8.81499 33.0261 8.72999 33.2534 8.53999 33.3949C6.71999 34.7086 5.55499 36.7802 5.36499 39.0033H20.63C20.44 36.7751 19.275 34.7086 17.455 33.3949C17.265 33.2534 17.175 33.0261 17.195 32.7987C17.215 32.5511 17.355 32.3591 17.58 32.253Z" fill="#1F4060"/>
</g>
<defs>
<clipPath id="clip0_157:624">
<rect width="26" height="41" fill="white"/>
</clipPath>
</defs>
</svg>
